<svg xmlns="http://www.w3.org/2000/svg" width="80" height="27" viewBox="0 0 80 27">
    <g fill="none" fill-rule="evenodd">
        <path fill="#FF2A00" d="M79.852 23.217a3.476 3.476 0 1 1-6.953-.001 3.476 3.476 0 0 1 6.953.001"/>
        <path fill="#191919" d="M47.108 5.315l-2.231-.022c-1.175-.011-1.649.413-1.817 1.582l-1.957 13.652c-.169 1.208.337 1.603 1.394 1.613l2.153.021c1.057.01 1.57-.335 1.738-1.582l1.958-13.652c.168-1.169-.063-1.6-1.238-1.612zm4.963 14.773c-.754 4.987-3.234 6.406-7.776 6.362l-2.858-.028c-4.542-.044-6.603-1.508-5.85-6.495L37.462 6.82c.586-3.778 2.799-5.864 7.497-5.818l3.289.032c4.737.047 6.283 2.168 5.698 5.947L52.07 20.088zM62.276 21.564c-.33-.027-.585-.12-.774-.28-.198-.217-.286-.543-.253-1.011l2.69-18.798-5.598-.006L55.76 19.44c-.754 4.984 1.307 6.447 5.849 6.491l3.902.034c1.527.015 3.722-.236 4.713-1.435l.42-2.878-8.367-.089zM15.913 5.463l-6.847-.066c-.9-.009-1.177.222-1.343 1.234L7.387 8.93c-.165.895.302 1.172 1.318 1.377l2.58.493c3.321.618 4.446 1.72 3.986 4.757l-.826 5.696c-.543 3.503-2.4 5.24-6.864 5.196l-2.897-.028C3.157 26.405.967 26.111 0 24.893l.396-2.803 7.423.072c.861.008 1.296-.378 1.381-1.157l.616-4.176c.165-.934-.067-1.21-1.278-1.455l-2.97-.614c-2.266-.49-3.98-1.404-3.438-4.752l.495-3.465C3.128 3.155 5.351.955 10.088 1l1.644.016c1.527.015 3.756.387 4.606 1.527l-.425 2.92zM33.36 5.463l-6.846-.066c-.901-.009-1.177.222-1.344 1.234l-.335 2.298c-.166.895.302 1.172 1.317 1.377l2.58.493c3.322.618 4.447 1.72 3.986 4.757l-.826 5.696c-.543 3.503-2.4 5.24-6.863 5.196l-2.898-.028c-1.527-.015-3.716-.309-4.683-1.527l.396-2.803 7.422.072c.861.008 1.296-.378 1.382-1.157l.615-4.176c.166-.934-.066-1.21-1.278-1.455l-2.97-.614c-2.266-.49-3.98-1.404-3.438-4.752l.496-3.465C20.576 3.155 22.798.955 27.536 1l1.644.016c1.527.015 3.755.387 4.605 1.527l-.425 2.92z"/>
    </g>
</svg>
