<svg id="Capa_1" enable-background="new 0 0 512 512" height="512" viewBox="0 0 512 512" width="512" xmlns="http://www.w3.org/2000/svg"><path d="m256 512c90.981 0 165-74.019 165-165 0-36.554-12.15-72.03-34.371-100.811 2.84-10.391 4.371-21.695 4.371-32.615v-13.343c18.512-12.145 30-32.635 30-55.444v-17.574c0-17.686-6.888-34.314-19.394-46.82l-10.606-10.606v-69.787h-30v69.468c-15.921 13.915-36.083 21.532-57.427 21.532h-95.147c-21.344 0-41.506-7.617-57.426-21.532v-69.468h-30v69.787l-10.606 10.607c-12.507 12.505-19.394 29.133-19.394 46.819v17.574c0 22.867 11.537 43.332 30 55.444v13.343c0 10.921 1.531 22.225 4.371 32.616-22.221 28.78-34.371 64.257-34.371 100.81 0 90.981 74.019 165 165 165zm-105-298.426v-2.867c2.053.19 4.125.294 6.213.294h38.787v-30h-38.787c-20.014-.001-36.213-16.198-36.213-36.214v-17.574c0-9.673 3.767-18.767 10.606-25.607l5.06-5.06c20.462 15.86 45.45 24.453 71.76 24.453h95.147c26.31 0 51.298-8.593 71.76-24.453l5.061 5.06c6.84 6.84 10.606 15.934 10.606 25.606v17.574c0 20.015-16.197 36.214-36.213 36.214h-38.787v30h38.787c2.088 0 4.159-.104 6.213-.294v2.867c0 21.157-6.859 34.355-8.18 38.945l5.695 6.639c20.948 24.422 32.485 55.618 32.485 87.843 0 74.439-60.561 135-135 135s-135-60.561-135-135c0-32.224 11.537-63.421 32.484-87.843l5.695-6.639c-1.29-4.482-8.179-17.865-8.179-38.944z"/><path d="m227.014 411.01c6.122 5.167 28.986 24.839 28.986 24.839s22.866-19.674 28.989-24.842c32.533-27.459 60.434-49.812 60.434-83.613 0-31.062-22.934-55.394-52.211-55.394-17.206 0-29.176 8.031-37.212 17.12-8.036-9.089-20.005-17.12-37.211-17.12-29.277 0-52.211 24.332-52.211 55.394-.001 32.606 25.35 54.002 60.436 83.616zm-8.225-109.01c13.629 0 20.179 14.054 22.362 20.097l3.578 9.903h22.543l3.578-9.903c2.183-6.043 8.732-20.097 22.362-20.097 14.582 0 22.211 12.775 22.211 25.394 0 18.627-18.912 34.633-49.783 60.688-3.148 2.657-6.351 5.36-9.64 8.156-3.288-2.795-6.489-5.497-9.636-8.153-33.624-28.38-49.787-42.815-49.787-60.691 0-12.619 7.63-25.394 22.212-25.394z"/></svg>